<svg width="24" height="37" viewBox="0 0 24 37" fill="none" xmlns="http://www.w3.org/2000/svg">
<path d="M14.9 36.3C14.4 36.3 14 36.1 13.6 35.8L7.1 29.3C6.8 29 6.6 28.5 6.6 28V15C6.6 14.5 6.8 14.1 7.1 13.7L13.6 7.2C14.3 6.5 15.5 6.5 16.2 7.2L22.7 13.7C23.4 14.4 23.4 15.6 22.7 16.3C22 17 20.8 17 20.1 16.3L14.9 11.1L10.2 15.8V27.3L14.9 32L20.1 26.8C20.8 26.1 22 26.1 22.7 26.8C23.4 27.5 23.4 28.7 22.7 29.4L16.2 35.9C15.8 36.1 15.3 36.3 14.9 36.3Z" fill="#0A3867"/>
<path d="M8.3 29.7C7.8 29.7 7.4 29.5 7 29.2L0.499998 22.7C-0.200002 22 -0.200002 20.8 0.499998 20.1C1.2 19.4 2.4 19.4 3.1 20.1L8.3 25.3L12.2 21.4L0.499998 9.6C-0.200002 8.9 -0.200002 7.7 0.499998 7L7 0.5C7.4 0.2 7.9 0 8.3 0C8.8 0 9.2 0.2 9.6 0.5L16.1 7C16.8 7.7 16.8 8.9 16.1 9.6C15.4 10.3 14.2 10.3 13.5 9.6L8.3 4.4L4.4 8.3L16.2 20.1C16.5 20.4 16.7 20.9 16.7 21.4C16.7 21.9 16.5 22.3 16.2 22.7L9.7 29.2C9.3 29.6 8.8 29.7 8.3 29.7Z" fill="#D24A43"/>
<path d="M8.3 28.1V28L1.7 21.5L1.9 21.3L8.3 27.8L14.7 21.4L1.7 8.3L8.3 1.7L14.9 8.3L14.8 8.4L8.3 2L2 8.3L15 21.4L8.3 28.1Z" fill="white"/>
<path d="M1.8 8.8C2.07614 8.8 2.3 8.57614 2.3 8.3C2.3 8.02386 2.07614 7.8 1.8 7.8C1.52385 7.8 1.3 8.02386 1.3 8.3C1.3 8.57614 1.52385 8.8 1.8 8.8Z" fill="white"/>
<path d="M1.8 21.9C2.07614 21.9 2.3 21.6761 2.3 21.4C2.3 21.1239 2.07614 20.9 1.8 20.9C1.52385 20.9 1.3 21.1239 1.3 21.4C1.3 21.6761 1.52385 21.9 1.8 21.9Z" fill="white"/>
<path d="M14.9 8.8C15.1761 8.8 15.4 8.57614 15.4 8.3C15.4 8.02386 15.1761 7.8 14.9 7.8C14.6239 7.8 14.4 8.02386 14.4 8.3C14.4 8.57614 14.6239 8.8 14.9 8.8Z" fill="white"/>
<path d="M14.9 21.9C15.1761 21.9 15.4 21.6761 15.4 21.4C15.4 21.1239 15.1761 20.9 14.9 20.9C14.6239 20.9 14.4 21.1239 14.4 21.4C14.4 21.6761 14.6239 21.9 14.9 21.9Z" fill="white"/>
<path d="M8.3 2.3C8.57614 2.3 8.8 2.07614 8.8 1.8C8.8 1.52386 8.57614 1.3 8.3 1.3C8.02385 1.3 7.8 1.52386 7.8 1.8C7.8 2.07614 8.02385 2.3 8.3 2.3Z" fill="white"/>
<path d="M8.3 28.4C8.57614 28.4 8.8 28.1761 8.8 27.9C8.8 27.6239 8.57614 27.4 8.3 27.4C8.02385 27.4 7.8 27.6239 7.8 27.9C7.8 28.1761 8.02385 28.4 8.3 28.4Z" fill="white"/>
<path d="M14.9 34.6L8.2 28V14.8H8.3L14.9 8.2L21.5 14.8L21.3 14.9L14.9 8.5L8.5 14.9V27.9L14.9 34.3L21.3 27.8L21.5 28L14.9 34.6Z" fill="white"/>
<path d="M8.3 15.4C8.57614 15.4 8.8 15.1761 8.8 14.9C8.8 14.6239 8.57614 14.4 8.3 14.4C8.02385 14.4 7.8 14.6239 7.8 14.9C7.8 15.1761 8.02385 15.4 8.3 15.4Z" fill="white"/>
<path d="M8.3 28.4C8.57614 28.4 8.8 28.1761 8.8 27.9C8.8 27.6239 8.57614 27.4 8.3 27.4C8.02385 27.4 7.8 27.6239 7.8 27.9C7.8 28.1761 8.02385 28.4 8.3 28.4Z" fill="white"/>
<path d="M21.4 15.4C21.6761 15.4 21.9 15.1761 21.9 14.9C21.9 14.6239 21.6761 14.4 21.4 14.4C21.1239 14.4 20.9 14.6239 20.9 14.9C20.9 15.1761 21.1239 15.4 21.4 15.4Z" fill="white"/>
<path d="M14.9 8.8C15.1761 8.8 15.4 8.57614 15.4 8.3C15.4 8.02386 15.1761 7.8 14.9 7.8C14.6239 7.8 14.4 8.02386 14.4 8.3C14.4 8.57614 14.6239 8.8 14.9 8.8Z" fill="white"/>
<path d="M14.9 34.9C15.1761 34.9 15.4 34.6761 15.4 34.4C15.4 34.1239 15.1761 33.9 14.9 33.9C14.6239 33.9 14.4 34.1239 14.4 34.4C14.4 34.6761 14.6239 34.9 14.9 34.9Z" fill="white"/>
<path d="M21.4 28.4C21.6761 28.4 21.9 28.1761 21.9 27.9C21.9 27.6239 21.6761 27.4 21.4 27.4C21.1239 27.4 20.9 27.6239 20.9 27.9C20.9 28.1761 21.1239 28.4 21.4 28.4Z" fill="white"/>
</svg>
